<svg width="1003" height="436" viewBox="0 0 1003 436" fill="none" xmlns="http://www.w3.org/2000/svg">
<path d="M210.455 283H180.228L219.489 166.636H256.933L296.194 283H265.967L238.637 195.955H237.728L210.455 283ZM206.421 237.205H269.603V258.568H206.421V237.205ZM371.122 283V166.636H399.247V215.841H400.782L439.247 166.636H472.372L431.122 218.568L473.111 283H439.475L410.497 237.261L399.247 251.466V283H371.122ZM607.514 201.523C607.135 197.356 605.45 194.117 602.457 191.807C599.503 189.458 595.279 188.284 589.787 188.284C586.15 188.284 583.12 188.758 580.696 189.705C578.271 190.652 576.453 191.958 575.241 193.625C574.029 195.254 573.404 197.129 573.366 199.25C573.29 200.992 573.631 202.527 574.389 203.852C575.184 205.178 576.321 206.352 577.798 207.375C579.313 208.36 581.131 209.231 583.253 209.989C585.374 210.746 587.76 211.409 590.412 211.977L600.412 214.25C606.169 215.5 611.245 217.167 615.639 219.25C620.071 221.333 623.783 223.814 626.775 226.693C629.806 229.572 632.097 232.886 633.65 236.636C635.203 240.386 635.999 244.591 636.037 249.25C635.999 256.598 634.143 262.905 630.468 268.17C626.794 273.436 621.51 277.47 614.616 280.273C607.76 283.076 599.484 284.477 589.787 284.477C580.052 284.477 571.567 283.019 564.332 280.102C557.097 277.186 551.472 272.754 547.457 266.807C543.442 260.86 541.378 253.341 541.264 244.25H568.196C568.423 248 569.427 251.125 571.207 253.625C572.987 256.125 575.431 258.019 578.537 259.307C581.681 260.595 585.317 261.239 589.446 261.239C593.234 261.239 596.453 260.727 599.105 259.705C601.794 258.682 603.859 257.261 605.298 255.443C606.737 253.625 607.476 251.542 607.514 249.193C607.476 246.996 606.794 245.121 605.468 243.568C604.143 241.977 602.097 240.614 599.332 239.477C596.605 238.303 593.12 237.223 588.878 236.239L576.718 233.398C566.643 231.087 558.707 227.356 552.912 222.205C547.116 217.015 544.237 210.008 544.275 201.182C544.237 193.985 546.169 187.678 550.071 182.261C553.972 176.845 559.37 172.621 566.264 169.591C573.158 166.561 581.018 165.045 589.843 165.045C598.859 165.045 606.681 166.58 613.309 169.648C619.976 172.678 625.146 176.939 628.821 182.432C632.495 187.924 634.37 194.288 634.446 201.523H607.514ZM712.641 283V166.636H740.766V213.341H786.618V166.636H814.687V283H786.618V236.239H740.766V283H712.641Z" fill="black"/>
<rect x="18.5" y="18.5" width="966" height="399" stroke="black" stroke-width="37"/>
</svg>
